<svg width="255" height="45" viewBox="0 0 255 45" fill="none" xmlns="http://www.w3.org/2000/svg">
<g clip-path="url(#clip0_2371_2816)">
<rect x="21.1074" width="44.0499" height="44.0499" rx="5.46073" fill="#F78736"/>
<g clip-path="url(#clip1_2371_2816)">
<rect x="33.1395" y="19.8455" width="19.3013" height="17.0038" rx="2.37088" fill="white" stroke="white" stroke-width="1.37664"/>
<rect x="38.1035" y="16.6711" width="1.83552" height="5.65953" rx="0.917761" fill="white"/>
<rect x="45.293" y="16.6711" width="2.06496" height="5.65953" rx="1.03248" fill="white"/>
<path d="M28.1775 17.387C27.5202 17.9175 27.3906 18.9011 27.888 19.5841C28.3854 20.267 29.3215 20.3906 29.9788 19.8601L29.0781 18.6235L28.1775 17.387ZM55.6696 19.8582C56.3131 20.39 57.2524 20.2684 57.7675 19.5865C58.2826 18.9046 58.1785 17.9207 57.535 17.3889L56.6023 18.6235L55.6696 19.8582ZM43.9104 8.13422L42.9777 9.36889L43.9104 8.13422ZM29.0781 18.6235L29.9788 19.8601L42.9777 9.36889L42.0771 8.13231L41.1764 6.89574L28.1775 17.387L29.0781 18.6235ZM43.9104 8.13422L42.9777 9.36889L55.6696 19.8582L56.6023 18.6235L57.535 17.3889L44.8431 6.89956L43.9104 8.13422ZM42.0771 8.13231L42.9777 9.36889L42.9777 9.36889L43.9104 8.13422L44.8431 6.89956C43.7764 6.01793 42.266 6.01635 41.1764 6.89574L42.0771 8.13231Z" fill="white"/>
<rect x="50.4141" y="9.10107" width="3.45846" height="5.64275" rx="0.910121" fill="white"/>
<rect x="38.1035" y="16.6711" width="1.83552" height="5.65953" rx="0.917761" fill="white"/>
<rect x="45.293" y="16.6711" width="2.06496" height="5.65953" rx="1.03248" fill="white"/>
<rect x="33.1395" y="19.8455" width="19.3013" height="17.0038" rx="2.37088" fill="white" stroke="white" stroke-width="1.37664"/>
<g clip-path="url(#clip2_2371_2816)">
<rect x="35.8398" y="23.241" width="3.44161" height="3.0592" rx="0.382401" fill="#F78736"/>
<rect x="35.7617" y="28.6711" width="3.44161" height="3.0592" rx="0.382401" fill="#F78736"/>
<rect x="41.2676" y="23.241" width="3.44161" height="3.0592" rx="0.382401" fill="#F78736"/>
<rect x="41.2676" y="28.6711" width="3.44161" height="3.0592" rx="0.382401" fill="#F78736"/>
<rect x="46.6992" y="23.241" width="3.44161" height="3.0592" rx="0.382401" fill="#F78736"/>
<rect x="46.7734" y="28.6711" width="3.44161" height="3.0592" rx="0.382401" fill="#F78736"/>
<rect x="35.8398" y="23.241" width="3.44161" height="3.0592" rx="0.382401" fill="#F78736"/>
<rect x="41.2676" y="23.241" width="3.44161" height="3.0592" rx="0.382401" fill="#F78736"/>
<rect x="46.6992" y="23.241" width="3.44161" height="3.0592" rx="0.382401" fill="#F78736"/>
<rect x="35.7617" y="28.6711" width="3.44161" height="3.0592" rx="0.382401" fill="#F78736"/>
<rect x="41.2676" y="28.6711" width="3.44161" height="3.0592" rx="0.382401" fill="#F78736"/>
<rect x="46.7734" y="28.6711" width="3.44161" height="3.0592" rx="0.382401" fill="#F78736"/>
</g>
</g>
<path d="M78.7107 32.2119L86.2872 11.068H90.1636L83.2037 32.2119H78.7107ZM94.2162 32.2119L87.2857 11.068H91.3383L98.9149 32.2119H94.2162ZM82.7045 24.0186H94.5686V27.5426H82.7045V24.0186ZM101.391 32.2119V17.235H105.708V20.7589H105.796V32.2119H101.391ZM105.796 24.4004L105.415 20.847C105.767 19.5745 106.344 18.6054 107.147 17.9398C107.95 17.2741 108.948 16.9413 110.143 16.9413C110.515 16.9413 110.789 16.9804 110.965 17.0588V21.1701C110.867 21.1309 110.73 21.1113 110.554 21.1113C110.377 21.0918 110.162 21.082 109.908 21.082C108.498 21.082 107.46 21.3365 106.795 21.8455C106.129 22.335 105.796 23.1866 105.796 24.4004ZM119.764 38.5257C117.689 38.5257 115.995 38.0852 114.683 37.2042C113.391 36.3232 112.628 35.129 112.393 33.6215H116.563C116.719 33.9935 117.052 34.2774 117.561 34.4731C118.09 34.6689 118.756 34.7668 119.558 34.7668C120.889 34.7668 121.859 34.5123 122.465 34.0033C123.072 33.4943 123.376 32.7014 123.376 31.6246V28.3649L123.611 28.4236C123.415 29.52 122.847 30.3912 121.908 31.0373C120.968 31.6637 119.803 31.977 118.413 31.977C117.082 31.977 115.917 31.6735 114.918 31.0666C113.939 30.4401 113.176 29.5689 112.628 28.453C112.08 27.3371 111.805 26.0254 111.805 24.5179C111.805 22.9908 112.089 21.6595 112.657 20.524C113.225 19.3885 114.018 18.5075 115.036 17.881C116.073 17.2545 117.277 16.9413 118.648 16.9413C120.057 16.9413 121.203 17.2741 122.084 17.9398C122.984 18.6054 123.513 19.5158 123.67 20.6708L123.464 20.7002V17.235H127.781V31.5658C127.781 33.7194 127.066 35.4129 125.637 36.6463C124.208 37.8992 122.25 38.5257 119.764 38.5257ZM119.94 28.5998C120.978 28.5998 121.819 28.2474 122.465 27.5426C123.112 26.8183 123.435 25.7904 123.435 24.4591C123.435 23.1279 123.102 22.1098 122.436 21.405C121.79 20.6806 120.938 20.3184 119.881 20.3184C118.863 20.3184 118.021 20.6806 117.356 21.405C116.71 22.1294 116.387 23.1572 116.387 24.4885C116.387 25.8198 116.71 26.8378 117.356 27.5426C118.021 28.2474 118.883 28.5998 119.94 28.5998ZM138.351 32.5056C136.687 32.5056 135.238 32.1825 134.004 31.5365C132.771 30.8708 131.812 29.9507 131.127 28.776C130.461 27.6014 130.128 26.2505 130.128 24.7234C130.128 23.1768 130.461 21.8259 131.127 20.6708C131.812 19.4962 132.761 18.5858 133.975 17.9398C135.189 17.2741 136.599 16.9413 138.204 16.9413C139.751 16.9413 141.092 17.2545 142.227 17.881C143.363 18.5075 144.244 19.3787 144.87 20.4946C145.497 21.6106 145.81 22.9223 145.81 24.4298C145.81 24.743 145.8 25.0367 145.78 25.3108C145.761 25.5653 145.732 25.81 145.692 26.0449H132.712V23.1376H142.139L141.376 23.6662C141.376 22.4524 141.082 21.5616 140.495 20.9939C139.927 20.4065 139.144 20.1129 138.145 20.1129C136.99 20.1129 136.09 20.5044 135.443 21.2875C134.817 22.0707 134.504 23.2453 134.504 24.8115C134.504 26.3386 134.817 27.4741 135.443 28.2181C136.09 28.962 137.049 29.334 138.321 29.334C139.026 29.334 139.633 29.2165 140.142 28.9816C140.651 28.7467 141.033 28.3649 141.287 27.8363H145.428C144.939 29.285 144.097 30.4303 142.903 31.2722C141.728 32.0944 140.211 32.5056 138.351 32.5056ZM148.166 32.2119V17.235H152.482V20.7589H152.571V32.2119H148.166ZM158.591 32.2119V22.9321C158.591 22.1098 158.375 21.4931 157.945 21.082C157.534 20.6708 156.927 20.4653 156.124 20.4653C155.439 20.4653 154.822 20.6219 154.274 20.9351C153.745 21.2484 153.324 21.6791 153.011 22.2273C152.717 22.7755 152.571 23.4215 152.571 24.1655L152.189 20.5534C152.678 19.457 153.393 18.5858 154.333 17.9398C155.292 17.2741 156.467 16.9413 157.857 16.9413C159.521 16.9413 160.793 17.4112 161.674 18.3509C162.555 19.271 162.996 20.5142 162.996 22.0804V32.2119H158.591Z" fill="#F78736"/>
<path d="M176.949 32.2119V28.8935L177.243 28.9522C177.047 30.029 176.46 30.8904 175.481 31.5365C174.521 32.1825 173.366 32.5056 172.015 32.5056C170.645 32.5056 169.451 32.1923 168.433 31.5658C167.434 30.9198 166.661 30.0192 166.113 28.8641C165.565 27.709 165.29 26.3484 165.29 24.7822C165.29 23.1964 165.574 21.8161 166.142 20.6415C166.71 19.4668 167.503 18.5565 168.521 17.9104C169.558 17.2643 170.762 16.9413 172.133 16.9413C173.562 16.9413 174.717 17.2741 175.598 17.9398C176.499 18.6054 177.027 19.5158 177.184 20.6708L176.861 20.7002V11.068H181.266V32.2119H176.949ZM173.425 28.9816C174.463 28.9816 175.304 28.6194 175.951 27.895C176.597 27.1511 176.92 26.0939 176.92 24.7234C176.92 23.353 176.587 22.3056 175.921 21.5812C175.275 20.8373 174.423 20.4653 173.366 20.4653C172.348 20.4653 171.506 20.8373 170.841 21.5812C170.195 22.3252 169.872 23.3824 169.872 24.7528C169.872 26.1232 170.195 27.1707 170.841 27.895C171.506 28.6194 172.368 28.9816 173.425 28.9816ZM194.214 32.2119C194.097 31.7812 194.009 31.3211 193.95 30.8317C193.911 30.3422 193.891 29.7745 193.891 29.1284H193.774V22.0511C193.774 21.4442 193.568 20.9743 193.157 20.6415C192.766 20.2891 192.178 20.1129 191.395 20.1129C190.651 20.1129 190.054 20.2401 189.604 20.4946C189.173 20.7492 188.889 21.1211 188.752 21.6106H184.553C184.749 20.2597 185.444 19.1438 186.638 18.2628C187.832 17.3818 189.467 16.9413 191.542 16.9413C193.696 16.9413 195.34 17.4209 196.476 18.3803C197.611 19.3396 198.179 20.7198 198.179 22.5209V29.1284C198.179 29.6179 198.208 30.1171 198.267 30.6261C198.345 31.1156 198.463 31.6442 198.619 32.2119H194.214ZM188.987 32.5056C187.499 32.5056 186.315 32.1336 185.434 31.3896C184.553 30.6261 184.112 29.6179 184.112 28.3649C184.112 26.9749 184.631 25.8589 185.669 25.0171C186.726 24.1557 188.194 23.5977 190.074 23.3432L194.449 22.7265V25.2814L190.808 25.8394C190.025 25.9568 189.447 26.1722 189.075 26.4854C188.703 26.7987 188.517 27.2294 188.517 27.7776C188.517 28.267 188.694 28.639 189.046 28.8935C189.398 29.148 189.868 29.2753 190.456 29.2753C191.376 29.2753 192.159 29.0305 192.805 28.5411C193.451 28.0321 193.774 27.4447 193.774 26.7791L194.185 29.1284C193.754 30.2444 193.099 31.0862 192.218 31.6539C191.337 32.2217 190.26 32.5056 188.987 32.5056ZM201.565 32.2119V17.235H205.881V20.7589H205.97V32.2119H201.565ZM205.97 24.4004L205.588 20.847C205.94 19.5745 206.518 18.6054 207.32 17.9398C208.123 17.2741 209.122 16.9413 210.316 16.9413C210.688 16.9413 210.962 16.9804 211.138 17.0588V21.1701C211.04 21.1309 210.903 21.1113 210.727 21.1113C210.551 21.0918 210.335 21.082 210.081 21.082C208.671 21.082 207.634 21.3365 206.968 21.8455C206.302 22.335 205.97 23.1866 205.97 24.4004Z" fill="white"/>
</g>
<defs>
<clipPath id="clip0_2371_2816">
<rect width="255" height="44.0499" fill="white"/>
</clipPath>
<clipPath id="clip1_2371_2816">
<rect width="32.2183" height="32.9464" fill="white" transform="translate(26.5684 5.46069)"/>
</clipPath>
<clipPath id="clip2_2371_2816">
<rect width="16.2002" height="13.8338" fill="white" transform="translate(34.7598 21.479)"/>
</clipPath>
</defs>
</svg>
